<svg width="52" height="53" viewBox="0 0 52 53" fill="none" xmlns="http://www.w3.org/2000/svg">
<path d="M10.8986 27.0921C16.4262 27.0921 20.9073 22.6111 20.9073 17.0834C20.9073 11.5558 16.4262 7.07471 10.8986 7.07471C5.37094 7.07471 0.889893 11.5558 0.889893 17.0834C0.889893 22.6111 5.37094 27.0921 10.8986 27.0921Z" fill="#40AAF7" stroke="white"/>
<path d="M16.6305 51.9308C22.1581 51.9308 26.6392 47.4497 26.6392 41.9221C26.6392 36.3944 22.1581 31.9134 16.6305 31.9134C11.1028 31.9134 6.6218 36.3944 6.6218 41.9221C6.6218 47.4497 11.1028 51.9308 16.6305 51.9308Z" fill="#40AAF7" stroke="white"/>
<path d="M41.4694 46.1988C46.997 46.1988 51.4781 41.7178 51.4781 36.1901C51.4781 30.6624 46.997 26.1814 41.4694 26.1814C35.9417 26.1814 31.4607 30.6624 31.4607 36.1901C31.4607 41.7178 35.9417 46.1988 41.4694 46.1988Z" fill="white" fill-opacity="0.2" stroke="white"/>
<path d="M35.7375 21.36C41.2651 21.36 45.7462 16.8789 45.7462 11.3513C45.7462 5.82364 41.2651 1.34259 35.7375 1.34259C30.2098 1.34259 25.7288 5.82364 25.7288 11.3513C25.7288 16.8789 30.2098 21.36 35.7375 21.36Z" fill="white" fill-opacity="0.2" stroke="white"/>
</svg>
