<svg width="51" height="51" viewBox="0 0 51 51" fill="none" xmlns="http://www.w3.org/2000/svg">
<path fill-rule="evenodd" clip-rule="evenodd" d="M47.7889 2.65268C49.1056 1.65079 51 2.58978 51 4.24429V49C51 50.1046 50.1046 51 49 51H45.5618C44.4573 51 43.5618 50.1046 43.5618 49V21.6781C43.5618 20.0236 41.6674 19.0846 40.3507 20.0865L3.21114 48.3473C1.89447 49.3492 3.05176e-05 48.4102 3.05176e-05 46.7557V2C3.05176e-05 0.895431 0.895461 0 2.00003 0H5.43823C6.5428 0 7.43823 0.895431 7.43823 2V29.3219C7.43823 30.9764 9.33268 31.9154 10.6493 30.9135L47.7889 2.65268Z" fill="white"/>
</svg>
