<?xml version="1.0" encoding="utf-8"?>
<!-- Generator: Adobe Illustrator 25.0.0, SVG Export Plug-In . SVG Version: 6.00 Build 0)  -->
<svg version="1.1" id="Layer_1" xmlns="http://www.w3.org/2000/svg" xmlns:xlink="http://www.w3.org/1999/xlink" x="0px" y="0px"
	 viewBox="0 0 135.29 133.63" style="enable-background:new 0 0 135.29 133.63;" xml:space="preserve">
<style type="text/css">
	.st0{display:none;fill:#004874;}
</style>
<path class="st0" d="M146.71,177.8H-11.42c-13.77,0-24.93-11.16-24.93-24.93V-5.27c0-13.77,11.16-24.93,24.93-24.93h158.13
	c13.77,0,24.93,11.16,24.93,24.93v158.13C171.65,166.64,160.48,177.8,146.71,177.8z"/>
<g>
	<path d="M23.75,73.35l-3.8,6.69V51.02l24.49-14.14l-0.46,0.81l0.87,0.5c1.19,0.68,2.29,1.46,3.29,2.33
		c1.31,1.13,2.45,2.41,3.41,3.8l-21.6,12.47v19.14c-1.74-0.41-3.42-1.05-5-1.91l-0.33-0.18L23.75,73.35z"/>
	<path d="M89.2,115.42l8.21,1.03l-29.76,17.18l-29.72-17.15l8.22-1.03l1.25-0.16l-0.11-0.98c-0.09-0.79-0.14-1.58-0.14-2.34
		c0-0.56,0.02-1.12,0.08-1.67l20.42,11.79l20.42-11.79c0.06,0.54,0.08,1.09,0.08,1.64c0,0.77-0.04,1.55-0.13,2.34l-0.11,0.98
		L89.2,115.42z"/>
	<path d="M135.29,119.2l-35.02-4.4l-8.22-1.03l-1.96-0.25c0.03-0.53,0.05-1.06,0.05-1.58c0-0.93-0.06-1.84-0.18-2.74
		c-1.34-11.11-10.84-19.75-22.32-19.75c-11.46,0-20.96,8.63-22.32,19.75c-0.12,0.91-0.18,1.83-0.18,2.77c0,0.52,0.02,1.04,0.06,1.58
		l-1.93,0.24l-8.21,1.03L0,119.23l19.94-35.14l4.56-8.04c0.15,0.07,0.29,0.15,0.44,0.21c1.59,0.78,3.27,1.35,5,1.71
		c2.11,0.45,4.3,0.6,6.51,0.43c10.83-0.85,19.69-9.65,20.61-20.48c0.44-5.24-0.97-10.37-3.82-14.58c-0.95-1.4-2.06-2.7-3.31-3.86
		c-0.99-0.93-2.08-1.77-3.25-2.51l1.17-2.06L67.64,0l19.81,34.92l1.15,2.02c-1.18,0.75-2.27,1.59-3.27,2.53
		c-1.25,1.16-2.35,2.46-3.3,3.86c-2.83,4.2-4.24,9.33-3.8,14.56c0.91,10.83,9.77,19.63,20.6,20.48c2.21,0.17,4.4,0.02,6.51-0.43
		c1.73-0.36,3.4-0.93,5-1.71c0.15-0.06,0.29-0.14,0.44-0.21l4.56,8.03L135.29,119.2z"/>
	<path d="M90.46,38.16l0.86-0.5l-0.43-0.76l24.46,14.12V80l-3.79-6.68l-0.87,0.49c-0.11,0.06-0.22,0.13-0.34,0.18
		c-1.58,0.86-3.26,1.5-5,1.91V56.79L83.74,44.32c0.96-1.4,2.1-2.68,3.41-3.8C88.16,39.64,89.26,38.85,90.46,38.16z"/>
</g>
</svg>
